<svg width="12" height="12" viewBox="0 0 12 12" fill="none" xmlns="http://www.w3.org/2000/svg">
<path fill-rule="evenodd" clip-rule="evenodd" d="M1.23456 3.4845C1.26939 3.44958 1.31078 3.42187 1.35633 3.40297C1.40189 3.38406 1.45073 3.37433 1.50006 3.37433C1.54939 3.37433 1.59823 3.38406 1.64379 3.40297C1.68934 3.42187 1.73073 3.44958 1.76556 3.4845L6.00006 7.71975L10.2346 3.4845C10.305 3.41409 10.4005 3.37453 10.5001 3.37453C10.5996 3.37453 10.6951 3.41409 10.7656 3.4845C10.836 3.55492 10.8755 3.65042 10.8755 3.75C10.8755 3.84958 10.836 3.94509 10.7656 4.0155L6.26556 8.5155C6.23073 8.55042 6.18934 8.57813 6.14378 8.59704C6.09823 8.61594 6.04939 8.62567 6.00006 8.62567C5.95073 8.62567 5.90189 8.61594 5.85634 8.59704C5.81078 8.57813 5.76939 8.55042 5.73456 8.5155L1.23456 4.0155C1.19964 3.98067 1.17193 3.93929 1.15303 3.89373C1.13412 3.84817 1.12439 3.79933 1.12439 3.75C1.12439 3.70068 1.13412 3.65184 1.15303 3.60628C1.17193 3.56072 1.19964 3.51934 1.23456 3.4845Z" fill="#5292F2"/>
</svg>
