<svg width="33" height="32" viewBox="0 0 33 32" fill="none" xmlns="http://www.w3.org/2000/svg">
<circle cx="16.4232" cy="16" r="16" fill="#4B505B"/>
<path d="M24 10.6528C24 9.24352 22.7565 8 21.3472 8H10.6528C9.24352 8 8 9.24352 8 10.6528V21.3471C8 22.7565 9.24352 24 10.6528 24H16.0414V17.9482H14.0518V15.2953H16.0414V14.2176C16.0414 12.3938 17.3679 10.8186 19.0259 10.8186H21.1814V13.4715H19.0259C18.7772 13.4715 18.5285 13.7202 18.5285 14.2176V15.2953H21.1814V17.9482H18.5285V24H21.3472C22.7565 24 24 22.7565 24 21.3471V10.6528Z" fill="white"/>
</svg>
