<svg width="50" height="50" viewBox="0 0 50 50" fill="none" xmlns="http://www.w3.org/2000/svg">
<circle cx="25" cy="25" r="24" fill="white" stroke="#4C5568" stroke-width="2"/>
<path d="M13.6981 30.6836C13.4971 30.3583 13.258 30.0091 12.9805 29.6359C12.7126 29.2532 12.416 28.8753 12.0907 28.5022C11.775 28.1195 11.4449 27.7559 11.1004 27.4114C10.756 27.0574 10.4116 26.7465 10.0671 26.4786V30.6836H7.8283V20.738H10.0671V24.4981C10.6508 23.8858 11.2344 23.2495 11.818 22.5893C12.4112 21.9196 12.9614 21.3025 13.4684 20.738H16.1235C15.4442 21.5417 14.7601 22.3167 14.0712 23.0629C13.3919 23.8092 12.6743 24.5603 11.9185 25.3161C12.7126 25.9763 13.478 26.7608 14.2147 27.6698C14.961 28.5787 15.6738 29.5833 16.3531 30.6836H13.6981ZM17.6389 30.6836V20.738H24.3554V22.618H19.8777V24.5699H23.8531V26.4068H19.8777V28.8035H24.6855V30.6836H17.6389ZM33.719 20.738V22.6467H30.7195V30.6836H28.4807V22.6467H25.4812V20.738H33.719ZM42.9129 20.738V22.6467H39.9134V30.6836H37.6746V22.6467H34.6751V20.738H42.9129Z" fill="#4C5568"/>
</svg>
