<svg width="32" height="32" viewBox="0 0 32 32" fill="none" xmlns="http://www.w3.org/2000/svg">
<circle cx="16" cy="16" r="16" fill="#4B505B"/>
<path d="M23.4805 17.1948C23.5325 16.7792 23.5844 16.4156 23.5844 16C23.5844 11.8442 20.2078 8.41558 16 8.41558C15.5844 8.41558 15.2208 8.46753 14.8052 8.51948C14.1299 8.15584 13.4026 8 12.6753 8C10.0779 8 8 10.0779 8 12.6753C8 13.4026 8.15584 14.1299 8.51948 14.8052C8.46753 15.2208 8.41558 15.5844 8.41558 16C8.41558 20.1558 11.7922 23.5844 16 23.5844C16.4156 23.5844 16.7792 23.5325 17.1948 23.4805C17.8701 23.7922 18.5974 24 19.3247 24C21.9221 24 24 21.9221 24 19.3247C24 18.5974 23.7922 17.8701 23.4805 17.1948ZM19.1688 18.7532C19.013 19.0649 18.8052 19.3247 18.4935 19.5325C18.1818 19.7403 17.8701 19.8961 17.4545 20C17.039 20.1039 16.5714 20.1558 16.0519 20.1558C14.961 20.1558 14.0779 19.8961 13.4545 19.4286C13.0909 19.1169 12.7792 18.7532 12.6234 18.2857C12.4156 17.8701 12.7792 17.3506 13.2987 17.3506H13.4545C13.7662 17.3506 14.0779 17.5584 14.1818 17.8182C14.2857 18.0779 14.4416 18.2857 14.6494 18.4416C14.961 18.7013 15.4286 18.8052 16 18.8052C16.5195 18.8052 16.9351 18.7013 17.2468 18.5455C17.5584 18.3896 17.7143 18.0779 17.7143 17.7662C17.7143 17.6104 17.6623 17.5065 17.6104 17.4026C17.5584 17.2987 17.4026 17.1948 17.2987 17.1429C17.1429 17.039 16.987 16.987 16.7273 16.9351C16.5195 16.8831 16.2597 16.7792 15.9481 16.7273L15.6364 16.6234C15.2727 16.5195 14.8571 16.4156 14.5455 16.3117C14.1818 16.2078 13.8701 16.0519 13.6104 15.8961C13.3506 15.7403 13.1429 15.5325 12.987 15.2208C12.8312 14.961 12.7792 14.5974 12.7792 14.1818C12.7792 13.7662 12.8831 13.4026 13.039 13.0909C13.1948 12.7792 13.4545 12.5195 13.7143 12.3636C14.026 12.1558 14.3377 12 14.7532 11.9481C15.1169 11.8442 15.5325 11.7922 16 11.7922C16.5195 11.7922 16.9351 11.8442 17.3506 11.9481C17.7662 12.0519 18.0779 12.2078 18.3896 12.4675C18.7013 12.6753 18.9091 12.9351 19.0649 13.2987C19.3247 13.7662 18.961 14.3896 18.3896 14.3896H18.2338C17.9221 14.3896 17.6623 14.2338 17.5065 13.974C17.4026 13.8182 17.2987 13.6623 17.1429 13.5065C16.8831 13.2987 16.4675 13.1948 16 13.1948C15.5325 13.1948 15.1688 13.2987 14.9091 13.4545C14.6494 13.6104 14.5455 13.8701 14.5455 14.1299C14.5455 14.2857 14.5974 14.3896 14.6494 14.4935C14.7013 14.5974 14.8052 14.7013 14.961 14.7532C15.1169 14.8052 15.2727 14.9091 15.4805 14.961C15.6883 15.013 15.9481 15.0649 16.2597 15.1688C16.5714 15.2208 16.8312 15.3247 17.1429 15.3766C17.4026 15.4286 17.6623 15.5325 17.9221 15.5844C18.1818 15.6883 18.3896 15.7922 18.5974 15.8961C18.8052 16 18.961 16.1558 19.1169 16.3117C19.2727 16.4675 19.3766 16.6753 19.4286 16.8831C19.5325 17.0909 19.5325 17.4026 19.5325 17.7143C19.4286 18.0779 19.3247 18.4416 19.1688 18.7532Z" fill="white"/>
</svg>
