<svg width="32" height="32" viewBox="0 0 32 32" fill="none" xmlns="http://www.w3.org/2000/svg">
<circle cx="16" cy="16" r="16" fill="#4B505B"/>
<path d="M8.28056 15.6799L11.959 17.2523L13.393 22.5413C13.4554 22.8986 13.8294 22.9701 14.0788 22.7557L16.1363 20.8259C16.3233 20.6115 16.635 20.6115 16.8844 20.8259L20.5629 23.8993C20.8123 24.1137 21.1864 23.9707 21.2487 23.6134L23.992 8.60405C24.0543 8.24669 23.7426 7.88933 23.4309 8.03227L8.28056 14.7507C7.90648 14.8937 7.90648 15.5369 8.28056 15.6799ZM13.206 16.4661L20.4382 11.3915C20.5629 11.32 20.6876 11.5344 20.5629 11.6059L14.6399 17.967C14.4529 18.1814 14.2659 18.4673 14.2659 18.8247L14.0788 20.54C14.0788 20.7545 13.7671 20.8259 13.7047 20.54L12.9566 17.3952C12.7695 17.0379 12.8942 16.609 13.206 16.4661Z" fill="white"/>
</svg>
