<svg width="33" height="32" viewBox="0 0 33 32" fill="none" xmlns="http://www.w3.org/2000/svg">
<circle cx="16.8464" cy="16" r="16" fill="#4B505B"/>
<path d="M24.8514 19.9726C24.8514 19.9041 24.7877 19.9041 24.7877 19.8356C24.5331 19.2877 23.9601 18.6027 23.1962 17.8493C22.8143 17.5069 22.6233 17.2329 22.4959 17.0959C22.305 16.8219 22.305 16.6164 22.3686 16.3425C22.4323 16.137 22.6869 15.7945 23.1326 15.1781C23.3872 14.8356 23.5145 14.6301 23.7055 14.4247C24.6604 13.0548 25.106 12.1644 24.9787 11.7534L24.915 11.6849C24.8514 11.6164 24.7877 11.5479 24.6604 11.5479C24.5331 11.4795 24.3421 11.4795 24.1511 11.5479H21.732C21.6684 11.5479 21.6684 11.5479 21.541 11.5479C21.4774 11.5479 21.4137 11.5479 21.4137 11.5479H21.3501H21.2864L21.2227 11.6164C21.1591 11.6849 21.1591 11.6849 21.1591 11.7534C20.9044 12.5068 20.5861 13.1233 20.2678 13.8082C20.0769 14.1507 19.8859 14.4932 19.6949 14.7671C19.5039 15.0411 19.3766 15.2466 19.2493 15.3836C19.122 15.5205 18.9946 15.589 18.931 15.726C18.8673 15.7945 18.74 15.863 18.74 15.7945C18.6763 15.7945 18.6127 15.7945 18.6127 15.726C18.549 15.6575 18.4854 15.589 18.4217 15.5205C18.358 15.4521 18.358 15.3151 18.2944 15.1781C18.2944 15.0411 18.2944 14.9041 18.2944 14.8356C18.2944 14.7671 18.2944 14.5616 18.2944 14.4247C18.2944 14.2192 18.2944 14.0822 18.2944 14.0137C18.2944 13.8082 18.2944 13.5343 18.2944 13.2603C18.2944 12.9863 18.2944 12.7808 18.2944 12.6438C18.2944 12.5068 18.2944 12.3014 18.2944 12.1644C18.2944 11.9589 18.2944 11.8219 18.2944 11.7534C18.2944 11.6849 18.2307 11.5479 18.2307 11.4795C18.1671 11.411 18.1034 11.3425 18.0397 11.274C17.9761 11.2055 17.8488 11.2055 17.7851 11.137C17.4668 11.0685 17.0848 11 16.6392 11C15.6207 11 14.9204 11.0685 14.6658 11.2055C14.5384 11.274 14.4111 11.3425 14.3475 11.4795C14.2201 11.6164 14.2201 11.6849 14.2838 11.6849C14.6021 11.7534 14.8567 11.8904 14.9841 12.0959L15.0477 12.2329C15.1114 12.3014 15.1114 12.4384 15.175 12.6438C15.2387 12.8493 15.2387 13.0548 15.2387 13.3288C15.2387 13.7397 15.2387 14.1507 15.2387 14.4247C15.2387 14.7671 15.175 14.9726 15.175 15.1781C15.175 15.3836 15.1114 15.5205 15.0477 15.589C14.9841 15.726 14.9841 15.7945 14.9204 15.7945C14.9204 15.7945 14.9204 15.863 14.8567 15.863C14.7931 15.863 14.7294 15.9315 14.6021 15.9315C14.5384 15.9315 14.4111 15.863 14.3475 15.7945C14.2201 15.726 14.0928 15.589 14.0292 15.4521C13.9018 15.3151 13.7745 15.1096 13.6472 14.8356C13.5199 14.5616 13.3289 14.2877 13.2016 13.8767L13.0743 13.6027C13.0106 13.4658 12.8833 13.1918 12.756 12.8493C12.6286 12.5068 12.5013 12.2329 12.374 11.8904C12.3103 11.7534 12.2467 11.6849 12.183 11.6164H12.1194C12.1194 11.6164 12.0557 11.5479 11.992 11.5479C11.9284 11.5479 11.8647 11.4795 11.8011 11.4795H9.50928C9.25464 11.4795 9.12732 11.5479 9.06366 11.6164L9 11.6849C9 11.6849 9 11.7534 9 11.8219C9 11.8904 9 11.9589 9.06366 12.0959C9.38196 12.9178 9.76392 13.7397 10.1459 14.5616C10.5278 15.3151 10.9098 16 11.1645 16.4795C11.4828 16.9589 11.7374 17.4384 12.0557 17.8493C12.374 18.2603 12.565 18.5342 12.6286 18.6712C12.7559 18.8082 12.8196 18.8767 12.8833 18.9452L13.0743 19.1507C13.2016 19.2877 13.3926 19.4932 13.6472 19.6986C13.9018 19.9041 14.2201 20.1096 14.5384 20.3151C14.8567 20.5205 15.2387 20.6575 15.6207 20.7945C16.0663 20.9315 16.4482 21 16.8302 20.9315H17.7851C17.9761 20.9315 18.1034 20.863 18.2307 20.726L18.2944 20.6575C18.2944 20.589 18.358 20.589 18.358 20.5205C18.358 20.4521 18.358 20.3836 18.358 20.2466C18.358 19.9726 18.358 19.7671 18.4217 19.5616C18.4854 19.3562 18.4854 19.2192 18.549 19.0822C18.6127 18.9452 18.6763 18.8767 18.74 18.8082C18.8037 18.7397 18.8673 18.6712 18.8673 18.6712H18.931C19.0583 18.6027 19.2493 18.6712 19.3766 18.8082C19.5676 18.9452 19.7586 19.1507 19.8859 19.3562C20.0132 19.5616 20.2042 19.7671 20.4588 20.0411C20.7135 20.3151 20.9045 20.5206 21.0318 20.589L21.2227 20.726C21.3501 20.7945 21.4774 20.863 21.6684 20.9315C21.8594 21 21.9867 21 22.114 21L24.2784 20.9315C24.4694 20.9315 24.6604 20.863 24.7877 20.7945C24.915 20.726 24.9787 20.6575 24.9787 20.5205C24.9787 20.4521 24.9787 20.3151 24.9787 20.2466C24.8514 20.1096 24.8514 20.0411 24.8514 19.9726Z" fill="white"/>
</svg>
