<svg width="48" height="50" viewBox="0 0 48 50" fill="none" xmlns="http://www.w3.org/2000/svg">
<ellipse cx="24.2343" cy="24.9449" rx="23.5387" ry="24.0625" fill="white"/>
<path d="M35.47 21.5907C35.4707 21.4047 35.4037 21.2261 35.284 21.095L29.9048 15.2015C29.6589 14.9321 29.2619 14.9329 29.017 15.2035L28.5587 15.7096C27.8642 16.4764 26.8372 16.8122 25.8152 16.9723C25.1032 17.0838 24.3671 17.0837 23.6552 16.9721C22.6328 16.8118 21.6056 16.4762 20.9109 15.7092L20.453 15.2035C20.208 14.933 19.8111 14.9321 19.5652 15.2016L14.186 21.095C14.0663 21.2261 13.9994 21.4047 14 21.5907C14.0006 21.7768 14.0689 21.9548 14.1895 22.0849L14.5868 22.5135C15.3525 23.3395 15.6848 24.4574 15.8227 25.5752C15.878 26.023 15.9688 26.4651 16.0945 26.8938C16.2371 27.3802 16.4208 27.8431 16.6439 28.2808C16.7566 28.5017 16.7299 28.7711 16.5634 28.955C15.8277 29.7674 15.8277 31.0892 16.5634 31.9017C16.8338 32.2004 16.9846 32.6407 16.926 33.0394C16.8321 33.6784 17.0076 34.3567 17.453 34.8485C17.8802 35.3202 18.4586 35.5174 19.0121 35.4443C19.4044 35.3925 19.856 35.5374 20.1216 35.8307C20.8579 36.6438 22.0551 36.6425 22.7902 35.8307C22.879 35.7327 23.0329 35.7327 23.1217 35.8307L23.34 36.0718C23.3612 36.0952 23.3835 36.1165 23.4067 36.1359C23.7624 36.5253 24.2338 36.7397 24.7351 36.7397C25.2373 36.7397 25.7096 36.5244 26.0656 36.1336C26.3074 35.8748 26.7037 35.8962 26.9893 36.1057C27.2362 36.2867 27.5689 36.441 28.0142 36.441C28.5183 36.441 28.9921 36.2243 29.3485 35.8308C29.6145 35.537 30.0662 35.3915 30.4592 35.4431C31.0148 35.516 31.5931 35.3168 32.0172 34.8485C32.4625 34.3567 32.6381 33.6784 32.5442 33.0393C32.4856 32.6407 32.6363 32.2004 32.9067 31.9017C33.6442 31.0874 33.6443 29.7694 32.9067 28.955C32.7394 28.7703 32.7124 28.4997 32.825 28.2774C33.2483 27.4422 33.5262 26.5222 33.6451 25.5747C33.7854 24.4574 34.1175 23.3397 34.883 22.5139L35.2807 22.0848C35.4011 21.9548 35.4693 21.7768 35.47 21.5907ZM17.4529 30.9195C17.2077 30.6487 17.2077 30.208 17.4529 29.9372L17.4555 29.9343C17.5435 29.8372 17.6964 29.8401 17.7843 29.9372L18.3425 30.5535C18.4365 30.6574 18.4365 30.8156 18.3425 30.9195C18.0972 31.1903 17.6982 31.1903 17.4529 30.9195ZM19.232 33.8663C18.9862 34.1377 18.5883 34.1377 18.3425 33.8663C18.0966 33.5947 18.0966 33.1555 18.3425 32.884L18.909 32.2584C19.1707 31.9694 19.6247 31.9694 19.8865 32.2584C20.114 32.5096 20.114 32.8924 19.8865 33.1436L19.232 33.8663ZM21.9006 34.8485C21.6553 35.1193 21.2563 35.1193 21.0111 34.8485C20.8923 34.7173 20.8268 34.5429 20.8268 34.3574C20.8268 34.1719 20.8923 33.9976 21.011 33.8664C21.0111 33.8663 21.0111 33.8662 21.0112 33.8662C21.0999 33.7682 21.2537 33.7682 21.3424 33.8662L21.9006 34.4825C21.9947 34.5864 21.9947 34.7447 21.9006 34.8485ZM32.0171 30.9196C31.7717 31.1904 31.3727 31.1904 31.1275 30.9196C31.1275 30.9196 31.1275 30.9196 31.1275 30.9195L26.6798 26.0082C26.4342 25.737 26.0359 25.737 25.7903 26.0082C25.5446 26.2795 25.5446 26.7192 25.7903 26.9905L31.1275 32.884C31.3728 33.1548 31.3728 33.5954 31.1275 33.8662C30.8823 34.1371 30.4833 34.1371 30.2379 33.8662C29.9439 33.5415 25.2148 28.3195 24.9007 27.9727C24.6551 27.7015 24.2568 27.7015 24.0111 27.9727C23.7655 28.244 23.7655 28.6837 24.0111 28.955L28.4592 33.8667C28.7046 34.1381 28.7047 34.577 28.4589 34.8485C28.2131 35.12 27.8151 35.12 27.5693 34.8485L23.1216 29.9373C22.876 29.666 22.4777 29.666 22.2321 29.9373C21.9864 30.2085 21.9864 30.6482 22.2321 30.9195L25.1915 34.1873C25.4373 34.4587 25.4368 34.8719 25.1868 35.1394C25.1844 35.142 25.1821 35.1445 25.1797 35.1471C25.0609 35.2783 24.9029 35.3506 24.735 35.3506C24.567 35.3506 24.409 35.2783 24.2903 35.1472C24.2879 35.1446 24.2856 35.142 24.2832 35.1395C23.909 34.7391 19.0751 29.398 18.6739 28.955C17.4028 27.5515 16.8192 25.6179 17.0724 23.65C17.1007 23.431 17.0326 23.2101 16.8893 23.0555C16.1184 22.2238 16.1134 20.9402 16.8779 20.1026L18.665 18.1447C19.3843 17.3565 20.6259 17.359 21.3422 18.1499C21.482 18.3043 21.6796 18.3772 21.8755 18.3464C22.1867 18.2975 22.3316 18.6851 22.1107 18.9098C22.0396 18.9822 21.9696 19.0564 21.9007 19.1325C21.1243 19.9898 19.0237 22.3092 18.3425 23.0615C17.605 23.8759 17.6049 25.1938 18.3425 26.0083C18.7103 26.4145 19.1936 26.6176 19.6768 26.6176C20.16 26.6176 20.6432 26.4145 21.0111 26.0083L22.6181 24.2338C23.1696 23.6248 24.0536 23.4729 24.8748 23.5C25.6168 23.5246 26.3756 23.7079 26.8739 24.2582L32.0171 29.9373C32.2629 30.2088 32.2629 30.6481 32.0171 30.9196ZM32.5807 23.0554C32.4374 23.2101 32.3693 23.4309 32.3976 23.65C32.4173 23.8034 32.4317 23.9573 32.441 24.1113C32.5463 25.8689 30.4484 26.2406 29.2665 24.9354L28.0398 23.581C27.6585 23.1599 27.7461 22.5002 28.1275 22.0792C28.3731 21.808 28.3731 21.3682 28.1275 21.097C27.8819 20.8257 27.4836 20.8257 27.2379 21.097C26.2969 22.1361 24.8582 22.409 23.658 21.776C23.4176 21.6491 23.1306 21.7034 22.9421 21.9116L20.1216 25.026C19.8764 25.2969 19.4774 25.2969 19.232 25.026C19.1132 24.8949 19.0478 24.7204 19.0478 24.5349C19.0478 24.3494 19.1132 24.175 19.232 24.0438C19.9677 23.2314 22.0623 20.9186 22.7902 20.1148C22.7903 20.1146 22.7904 20.1145 22.7905 20.1144C24.0533 18.7203 25.8024 18.0652 27.5946 18.3464C27.7902 18.3771 27.988 18.3043 28.1278 18.1499C28.8441 17.359 30.0857 17.3565 30.8051 18.1447L32.5921 20.1026C33.3566 20.9402 33.3516 22.2238 32.5807 23.0554Z" fill="#5292F2"/>
</svg>
