<svg width="18" height="18" viewBox="0 0 18 18" fill="none" xmlns="http://www.w3.org/2000/svg">
<path d="M10.1939 9.00017L15.5026 3.69124C15.8325 3.36168 15.8325 2.82696 15.5026 2.49741C15.1728 2.16757 14.6387 2.16757 14.3088 2.49741L9.00014 7.80633L3.69115 2.49741C3.36133 2.16757 2.82719 2.16757 2.49737 2.49741C2.16754 2.82696 2.16754 3.36168 2.49737 3.69124L7.80636 9.00017L2.49737 14.3091C2.16754 14.6387 2.16754 15.1734 2.49737 15.5029C2.66228 15.6676 2.87841 15.75 3.09426 15.75C3.31011 15.75 3.52624 15.6676 3.69115 15.5026L9.00014 10.1937L14.3088 15.5026C14.4738 15.6676 14.6899 15.75 14.9057 15.75C15.1216 15.75 15.3377 15.6676 15.5026 15.5026C15.8325 15.1731 15.8325 14.6384 15.5026 14.3088L10.1939 9.00017Z" fill="#4C5568"/>
</svg>
